<svg width="30" height="30" viewBox="0 0 30 30" fill="none" xmlns="http://www.w3.org/2000/svg">
<rect width="30" height="30" rx="4" fill="black"/>
<path d="M13.5289 20.14C13.1182 20.14 12.7309 20.0607 12.3669 19.902C12.0029 19.7433 11.6949 19.5333 11.4429 19.272C11.1909 19.0013 11.0276 18.7073 10.9529 18.39V14.582C11.0276 14.2647 11.1909 13.9847 11.4429 13.742C11.6949 13.4993 12.0029 13.3127 12.3669 13.182C12.7309 13.042 13.1182 12.972 13.5289 12.972C14.2102 12.972 14.8029 13.126 15.3069 13.434C15.8202 13.7327 16.2169 14.1527 16.4969 14.694C16.7862 15.2353 16.9309 15.856 16.9309 16.556C16.9309 17.256 16.7862 17.8767 16.4969 18.418C16.2169 18.95 15.8202 19.37 15.3069 19.678C14.8029 19.986 14.2102 20.14 13.5289 20.14ZM13.0249 17.732C13.2489 17.732 13.4449 17.6807 13.6129 17.578C13.7902 17.4753 13.9256 17.3353 14.0189 17.158C14.1216 16.9807 14.1729 16.78 14.1729 16.556C14.1729 16.332 14.1216 16.1313 14.0189 15.954C13.9256 15.7767 13.7902 15.6367 13.6129 15.534C13.4356 15.4313 13.2349 15.38 13.0109 15.38C12.7869 15.38 12.5862 15.4313 12.4089 15.534C12.2409 15.6367 12.1102 15.7767 12.0169 15.954C11.9236 16.122 11.8769 16.3227 11.8769 16.556C11.8769 16.7893 11.9236 16.9947 12.0169 17.172C12.1196 17.3493 12.2549 17.4893 12.4229 17.592C12.6002 17.6853 12.8009 17.732 13.0249 17.732ZM9.28691 20V9.752H12.0309V14.806L11.5829 16.472L11.9609 18.152V20H9.28691ZM19.2208 20.168C18.7821 20.168 18.4181 20.0187 18.1288 19.72C17.8394 19.4213 17.6948 19.0573 17.6948 18.628C17.6948 18.1893 17.8394 17.8207 18.1288 17.522C18.4181 17.2233 18.7821 17.074 19.2208 17.074C19.6594 17.074 20.0188 17.2233 20.2988 17.522C20.5881 17.8207 20.7328 18.1893 20.7328 18.628C20.7328 19.0573 20.5881 19.4213 20.2988 19.72C20.0188 20.0187 19.6594 20.168 19.2208 20.168Z" fill="white"/>
</svg>
