<svg width="47" height="37" viewBox="0 0 47 37" fill="none" xmlns="http://www.w3.org/2000/svg">
<path d="M3.1703 4.56078C5.49559 2.23849 7.91676 1.18508 10.4338 1.40055C12.9509 1.61602 15.5399 3.05249 18.2008 5.70995L23.8821 11.384L35.2808 0L36 0.718232L10.6855 26L4.285 19.6077C1.50425 16.8306 0.0779099 14.1851 0.00599306 11.6713C-0.0898955 9.13352 0.964874 6.76335 3.1703 4.56078Z" fill="#2795FB"/>
<path d="M33.4944 22.3411C34.7348 24.1545 35.2577 26.1734 35.0632 28.3978C34.8929 30.5981 33.993 32.5082 32.3635 34.1282C30.3448 36.135 27.9978 37.09 25.3225 36.9933C22.6714 36.8724 20.0204 35.4943 17.3694 32.8588L10 25.5327L35.6834 0L43.0527 7.32613C45.6065 9.86489 46.9198 12.3311 46.9928 14.7248C47.0901 17.0943 46.2023 19.2099 44.3296 21.0717C42.6271 22.7642 40.803 23.6588 38.8573 23.7555C36.9359 23.8764 35.1483 23.4049 33.4944 22.3411ZM24.4469 12.6213L31.3055 19.4396C33.4458 21.5674 35.5739 22.6917 37.6899 22.8126C39.8545 22.9334 41.8245 22.1114 43.6 20.3463C45.3025 18.6538 46.0929 16.7558 45.9713 14.6523C45.8497 12.5487 44.6336 10.3485 42.3231 8.05149L35.6834 1.45072L24.4469 12.6213ZM18.099 32.1334C20.4339 34.4546 22.793 35.7119 25.1765 35.9053C27.5843 36.1229 29.7368 35.2887 31.6339 33.4028C33.5066 31.541 34.3214 29.4012 34.0782 26.9834C33.8593 24.5413 32.5945 22.1718 30.284 19.8749L23.7172 13.3466L11.4593 25.5327L18.099 32.1334Z" fill="black"/>
</svg>
