<svg  width="84" height="84" viewBox="0 0 84 84" fill="none" xmlns="http://www.w3.org/2000/svg">
<g clip-path="url(#clip0_17_375)">
<path fill-rule="evenodd" clip-rule="evenodd" d="M41.7584 1.04046C18.6997 1.04046 0 19.7371 0 42.7988C0 61.2504 11.964 76.8982 28.5568 82.4225C30.6453 82.8093 31.4129 81.5146 31.4129 80.411C31.4129 79.4152 31.3713 76.126 31.3543 72.6394C19.7356 75.1658 17.2864 67.7102 17.2864 67.7102C15.3874 62.8826 12.6499 61.5987 12.6499 61.5987C8.86121 59.0045 12.9382 59.0616 12.9382 59.0616C17.1306 59.3545 19.3379 63.362 19.3379 63.362C23.065 69.7464 29.1101 67.8982 31.4915 66.8331C31.8676 64.1342 32.9466 62.2908 34.1426 61.2473C24.8666 60.1945 15.1161 56.6125 15.1161 40.61C15.1161 36.0522 16.7499 32.3252 19.418 29.4027C18.9834 28.3485 17.553 24.1036 19.8203 18.3527C19.8203 18.3527 23.3269 17.2291 31.3081 22.6331C34.6374 21.7098 38.2087 21.2443 41.7554 21.2289C45.305 21.2443 48.8826 21.7083 52.2166 22.6331C60.187 17.2322 63.6904 18.3527 63.6904 18.3527C65.9608 24.1052 64.5367 28.3531 64.102 29.4028C66.7793 32.3252 68.3994 36.0522 68.3994 40.61C68.3994 56.6494 58.6271 60.1759 49.3311 61.2102C50.8294 62.5049 52.1672 65.0467 52.1672 68.9401C52.1672 74.5245 52.1195 79.0252 52.1195 80.3986C52.1195 81.5099 52.8717 82.8093 54.9894 82.4023C71.5729 76.8751 83.5216 61.2255 83.5216 42.7848C83.5216 19.7261 64.825 1.02637 41.7616 1.02637L41.7586 1.04033L41.7584 1.04046Z" fill="#CACACA"/>
</g>
<defs>
<clipPath id="clip0_17_375">
<rect width="83.52" height="83.52" fill="white"/>
</clipPath>
</defs>
</svg>
