<svg width="84" height="84" viewBox="0 0 84 84" fill="none" xmlns="http://www.w3.org/2000/svg">
<path d="M41.7668 0C30.4228 0 28.9955 0.0475781 24.5435 0.251484C21.0799 0.321882 17.6532 0.97917 14.4094 2.19539C11.6213 3.23777 9.09667 4.88065 7.01437 7.00758C4.88936 9.09412 3.24282 11.6173 2.18859 14.4026C0.9719 17.6484 0.316833 21.0777 0.251484 24.5435C0.054375 28.9955 0 30.416 0 41.76C0 53.104 0.0475781 54.5177 0.251484 58.9765C0.321882 62.4401 0.97917 65.8668 2.19539 69.1106C3.2429 71.8961 4.8851 74.4197 7.00758 76.5056C9.09232 78.6328 11.616 80.2797 14.4026 81.3314C17.6493 82.5449 21.0781 83.1999 24.5435 83.2685C28.9955 83.4724 30.416 83.52 41.76 83.52C53.104 83.52 54.5177 83.4724 58.9765 83.2685C62.4419 83.1999 65.8707 82.5449 69.1174 81.3314C71.8948 80.2541 74.4172 78.6098 76.5237 76.5033C78.6302 74.3968 80.2745 71.8744 81.3518 69.097C82.5615 65.8513 83.2186 62.4258 83.2957 58.9629C83.4928 54.5109 83.5472 53.0904 83.5472 41.7464C83.5472 30.4024 83.4928 28.9819 83.2957 24.5299C83.2186 21.0648 82.5615 17.637 81.3518 14.389C80.3027 11.6027 78.6581 9.07898 76.5328 6.99398C74.4518 4.86549 71.9268 3.22237 69.1378 2.1818C65.8822 0.967204 62.4439 0.314482 58.9697 0.251484C54.5109 0.0475781 53.0972 0 41.7532 0H41.7668ZM38.0149 7.52414H41.7668C52.9137 7.52414 54.2323 7.56492 58.6366 7.76883C61.2848 7.79897 63.9081 8.28408 66.3919 9.20297C68.2053 9.87286 69.8451 10.9413 71.1905 12.3295C72.5758 13.6772 73.6438 15.3164 74.317 17.1281C75.2359 19.6119 75.721 22.2352 75.7512 24.8834C75.9551 29.2809 75.9959 30.6063 75.9959 41.7532C75.9959 52.9001 75.9551 54.2187 75.7512 58.623C75.7217 61.2691 75.2366 63.8902 74.317 66.3715C73.6214 68.1711 72.5569 69.8053 71.192 71.169C69.8272 72.5327 68.1921 73.5957 66.3919 74.2898C63.9098 75.2158 61.2857 75.7034 58.6366 75.7308C54.2391 75.9347 52.9137 75.9755 41.7668 75.9755C30.6199 75.9755 29.2945 75.9347 24.8902 75.7308C22.2416 75.6985 19.6183 75.2111 17.1349 74.2898C15.3197 73.6228 13.6775 72.5567 12.3295 71.1701C10.9438 69.824 9.87767 68.1842 9.20977 66.3715C8.28856 63.8881 7.80115 61.2648 7.76883 58.6162C7.57172 54.2119 7.53094 52.8933 7.53094 41.7396C7.53094 30.5859 7.57172 29.2741 7.76883 24.8698C7.79707 22.2208 8.28461 19.5968 9.20977 17.1145C9.87767 15.3018 10.9438 13.662 12.3295 12.3159C13.6786 10.929 15.3204 9.86085 17.1349 9.18937C19.6191 8.27102 22.2419 7.7837 24.8902 7.74844C28.744 7.57852 30.2325 7.52414 38.0149 7.51734V7.52414ZM64.0537 14.457C63.0614 14.457 62.0913 14.7513 61.2663 15.3028C60.4412 15.8543 59.7983 16.6381 59.4188 17.555C59.0394 18.472 58.9404 19.4809 59.1345 20.4541C59.3286 21.4274 59.8071 22.3211 60.5092 23.0224C61.2114 23.7236 62.1059 24.2008 63.0793 24.3936C64.0528 24.5864 65.0616 24.4861 65.978 24.1054C66.8945 23.7247 67.6774 23.0807 68.2278 22.2549C68.7781 21.4291 69.0712 20.4586 69.0698 19.4662C69.0698 18.8078 68.94 18.1559 68.6879 17.5477C68.4357 16.9395 68.0661 16.387 67.6003 15.9217C67.1344 15.4565 66.5814 15.0877 65.9728 14.8363C65.3643 14.585 64.7122 14.4561 64.0537 14.457ZM41.7668 20.3159C37.5255 20.3159 33.3795 21.5735 29.8531 23.9298C26.3266 26.2862 23.5781 29.6353 21.955 33.5537C20.3319 37.4721 19.9073 41.7838 20.7347 45.9435C21.5621 50.1033 23.6045 53.9243 26.6035 56.9233C29.6025 59.9223 33.4235 61.9647 37.5833 62.7921C41.743 63.6195 46.0547 63.1949 49.9731 61.5718C53.8915 59.9487 57.2406 57.2002 59.597 53.6737C61.9533 50.1473 63.2109 46.0013 63.2109 41.76C63.2091 36.0732 60.9493 30.6199 56.9281 26.5987C52.9069 22.5775 47.4536 20.3177 41.7668 20.3159ZM41.7668 27.84C44.5208 27.836 47.2141 28.6489 49.5059 30.176C51.7977 31.7031 53.585 33.8757 54.6417 36.4189C55.6984 38.9621 55.977 41.7616 55.4422 44.4631C54.9074 47.1647 53.5833 49.6469 51.6373 51.5957C49.6914 53.5445 47.2111 54.8723 44.5104 55.411C41.8096 55.9498 39.0097 55.6753 36.465 54.6223C33.9202 53.5694 31.745 51.7852 30.2146 49.4957C28.6841 47.2061 27.8672 44.514 27.8672 41.76C27.8744 38.0764 29.3413 34.5459 31.9466 31.9418C34.552 29.3378 38.0832 27.8726 41.7668 27.8672V27.84Z" fill="#CACACA"/>
</svg>
