<svg width="87" height="81" viewBox="0 0 87 81" fill="none" xmlns="http://www.w3.org/2000/svg">
<path fill-rule="evenodd" clip-rule="evenodd" d="M31.0729 24.9644H48.2638V33.7775H48.5126C50.9066 29.4825 56.7606 24.9644 65.4901 24.9644C83.6428 24.9644 87 36.2612 87 50.9571V80.8931H69.072V54.3561C69.072 48.0301 68.9403 39.8866 59.75 39.8866C50.4152 39.8866 48.9846 46.7729 48.9846 53.8953V80.8931H31.0728V24.9644H31.0729ZM18.6441 9.42874C18.6441 14.5747 14.468 18.7508 9.32208 18.7508C4.17617 18.7508 -0.00146484 14.5747 -0.00146484 9.42874C-0.00146484 4.28283 4.17617 0.106689 9.32208 0.106689C14.468 0.106689 18.6441 4.28283 18.6441 9.42874ZM-0.00146484 24.9644H18.6441V80.8931H-0.00146484V24.9644Z" fill="#CACACA"/>
</svg>
